<svg width="70" height="70" viewBox="0 0 70 70" fill="none" xmlns="http://www.w3.org/2000/svg">
<path d="M50.0808 40.6027L69.5924 68.0388C69.8446 67.5678 70.0002 67.046 70.0002 66.483V31.292L50.0808 40.6027Z" fill="#FB403F"/>
<path d="M35.0012 43.7184L68.8465 27.8944L35.0012 0L1.1543 27.8944L35.0012 43.7184Z" fill="#FB403F"/>
<path d="M0 31.292V66.4846C0 67.0433 0.155584 67.5688 0.407823 68.0404L19.9177 40.6043L0 31.292Z" fill="#FB403F"/>
<path d="M46.6705 42.1992L35.8544 47.2558C35.5849 47.3822 35.293 47.4441 35.0003 47.4441C34.7083 47.4441 34.4124 47.3828 34.1443 47.2558L23.3282 42.1992L3.57422 69.9791C3.65036 69.9827 3.72054 69.9999 3.79601 69.9999H66.2086C66.2848 69.9999 66.355 69.9821 66.4284 69.9791L46.6705 42.1992Z" fill="#FB403F"/>
</svg>
