<svg width="70" height="70" viewBox="0 0 70 70" fill="none" xmlns="http://www.w3.org/2000/svg">
<path d="M69.9985 35C69.9985 15.6702 54.3286 0 34.9993 0C15.6699 0 0 15.6702 0 35C0 51.4135 11.3006 65.1868 26.5449 68.9695V45.696H19.3281V35H26.5449V30.3912C26.5449 18.4785 31.9361 12.957 43.6315 12.957C45.849 12.957 49.6752 13.3924 51.2404 13.8264V23.5215C50.4144 23.4345 48.9794 23.3912 47.1972 23.3912C41.4587 23.3912 39.2412 25.5655 39.2412 31.2172V35H50.6734L48.7092 45.696H39.2412V69.7438C56.5714 67.6508 69.9985 52.8948 69.9985 35Z" fill="#FB403F"/>
<path d="M48.7077 45.696L50.6719 35H39.2397V31.2173C39.2397 25.5655 41.4573 23.3913 47.1957 23.3913C48.9779 23.3913 50.4129 23.4346 51.2389 23.5215V13.8264C49.6737 13.391 45.8475 12.957 43.63 12.957C31.9347 12.957 26.5434 18.4786 26.5434 30.3913V35H19.3265V45.696H26.5434V68.9696C29.2509 69.6416 32.083 70 34.9978 70C36.4327 70 37.8482 69.9118 39.2384 69.7438V45.696H48.7077Z" fill="black"/>
</svg>
