<svg width="70" height="70" viewBox="0 0 70 70" fill="none" xmlns="http://www.w3.org/2000/svg">
<path d="M17.4595 36.2686C17.5267 39.4916 17.8444 42.6396 18.4055 45.6534C16.5886 44.9588 14.6294 44.6071 12.6279 44.6071H12.4018H12.1845C12.1339 44.6071 12.0841 44.6071 12.0422 44.6158C12.0003 44.6158 11.9584 44.6158 11.9165 44.6244C11.8414 44.6244 11.7743 44.6331 11.6992 44.6331C11.6407 44.6331 11.5901 44.6417 11.5316 44.6417C11.4565 44.6417 11.3894 44.6503 11.3143 44.6583C11.2471 44.667 11.1886 44.667 11.1215 44.6749C11.0377 44.6836 10.946 44.6915 10.8622 44.7002C10.7452 44.7088 10.6275 44.7254 10.5105 44.7421C10.452 44.7507 10.4015 44.7587 10.343 44.7673C10.0166 44.8092 9.69019 44.8677 9.36311 44.9348C9.3046 44.9514 9.23746 44.9601 9.17896 44.9767C8.95294 45.0272 8.73488 45.0771 8.50885 45.1356C8.45035 45.1522 8.39185 45.1688 8.33336 45.1861C8.28284 45.2027 8.23298 45.2113 8.18245 45.228C8.09005 45.2532 7.98967 45.2864 7.89792 45.3117C7.83942 45.3283 7.78091 45.3536 7.71378 45.3702C7.51301 45.4373 7.31157 45.5045 7.11945 45.5709C5.98931 42.5991 5.36108 39.4842 5.22681 36.2779L17.4596 36.2765L17.4595 36.2686Z" fill="#FB403F"/>
<path d="M33.7615 36.2686V48.0397C30.5631 48.1567 27.4227 48.7516 24.4252 49.7892C24.4166 49.7805 24.4086 49.7639 24.392 49.7559C24.3335 49.6888 24.275 49.6217 24.2165 49.5552L24.1912 49.5299C24.1407 49.4714 24.0822 49.4129 24.0237 49.3544C23.9984 49.3292 23.9731 49.3039 23.9485 49.2793C23.89 49.2122 23.8229 49.1537 23.7558 49.0866C23.6806 49.0115 23.6048 48.9357 23.5297 48.8692C23.4546 48.8021 23.3788 48.727 23.3037 48.6598C23.2951 48.6512 23.2871 48.6432 23.2784 48.6346C23.2033 48.5675 23.1362 48.5003 23.0611 48.4418C22.9022 48.2996 22.7426 48.1653 22.5751 48.0317C22.5419 48.0064 22.508 47.9732 22.4661 47.9479C22.4076 47.8974 22.3404 47.8476 22.2819 47.8057C22.2068 47.7472 22.1231 47.6887 22.0473 47.6302C21.9967 47.5884 21.9382 47.5551 21.8884 47.5132C21.8465 47.48 21.8046 47.4547 21.7627 47.4208C21.7122 47.3876 21.6624 47.3457 21.6118 47.3118C21.5613 47.2786 21.5194 47.2447 21.4696 47.2195C21.4363 47.1942 21.4024 47.1776 21.3772 47.1523C21.3439 47.1271 21.31 47.1104 21.2681 47.0852C20.4897 43.6527 20.0542 40.0274 19.9705 36.2686L33.7615 36.2686Z" fill="#FB403F"/>
<path d="M33.7615 64.7244C31.601 64.3562 29.4908 63.0334 27.5737 60.8479C27.5737 60.8313 27.5823 60.8147 27.5823 60.8061C27.599 60.731 27.6076 60.6552 27.6242 60.5801V60.5635C27.6408 60.4711 27.6495 60.3793 27.6661 60.2869V60.2783C27.6827 60.1859 27.6914 60.0855 27.6993 59.9938C27.708 59.9267 27.716 59.8516 27.7246 59.7844C27.7332 59.7425 27.7332 59.7007 27.7332 59.6588C27.7419 59.5917 27.7419 59.5245 27.7499 59.458C27.7499 59.4248 27.7585 59.3909 27.7585 59.349C27.7585 59.2985 27.7672 59.24 27.7672 59.1902C27.7672 59.1649 27.7672 59.1317 27.7758 59.1064C27.7758 59.0227 27.7844 58.9389 27.7844 58.8552V58.8046V58.5454V58.3028V58.1273V58.0941C27.7844 58.027 27.7758 57.9598 27.7758 57.9013V57.8595C27.7758 57.801 27.7672 57.7425 27.7672 57.684C27.7585 57.4999 27.7419 57.3157 27.7166 57.1316C27.708 57.0731 27.7 57.0146 27.6914 56.9475C27.6747 56.8471 27.6661 56.7381 27.6495 56.6378C27.6329 56.554 27.6242 56.4703 27.6076 56.3865C27.591 56.3028 27.5744 56.211 27.5571 56.1273C27.5484 56.0601 27.5318 55.993 27.5152 55.9265C27.5066 55.876 27.4899 55.8262 27.482 55.7756C27.4733 55.7504 27.4733 55.7172 27.4653 55.6919C27.4567 55.6414 27.4401 55.5915 27.4321 55.5496C27.4321 55.533 27.4235 55.5244 27.4235 55.5078C27.4068 55.4493 27.3982 55.3821 27.3816 55.3237C27.365 55.2565 27.3483 55.1814 27.3231 55.1143C27.3144 55.0724 27.2978 55.0392 27.2898 54.9973C27.2732 54.9468 27.2646 54.9049 27.248 54.855C27.2393 54.8298 27.2313 54.8045 27.2227 54.7799C27.2061 54.7381 27.1974 54.6875 27.1808 54.6457C27.1642 54.6038 27.1556 54.5533 27.1389 54.5114C27.1223 54.4443 27.0971 54.3858 27.0804 54.3273C27.0552 54.2435 27.0219 54.1598 26.988 54.076C26.9548 53.9923 26.9209 53.9085 26.8956 53.8247C26.8704 53.7576 26.8371 53.6825 26.8119 53.6154C26.8032 53.5901 26.7952 53.5735 26.7866 53.5482C26.7613 53.4731 26.7281 53.406 26.6942 53.3309C26.6609 53.2471 26.6191 53.172 26.5852 53.0883V53.0796C26.5519 52.9959 26.51 52.9121 26.4682 52.837C26.4349 52.7699 26.401 52.6948 26.3591 52.6276C26.3505 52.611 26.3425 52.5857 26.3259 52.5691C26.2927 52.502 26.2508 52.4269 26.2089 52.3597C26.167 52.276 26.1251 52.2009 26.0746 52.1251C26.0414 52.058 25.9995 51.9995 25.9656 51.9323C28.4859 51.1287 31.0984 50.6681 33.761 50.5591L33.7615 64.7244Z" fill="#FB403F"/>
<path d="M36.2734 64.7243V50.5503C39.991 50.7012 43.5748 51.5301 46.9579 53.0117C44.3447 59.751 40.4517 64.0045 36.2734 64.7243Z" fill="#FB403F"/>
<path d="M54.3848 57.6769C54.3429 57.7101 54.301 57.752 54.2592 57.7859C54.1588 57.8696 54.0664 57.9534 53.966 58.0371C53.8656 58.1209 53.7652 58.196 53.6648 58.2798C53.5645 58.3635 53.4641 58.4386 53.3637 58.5144C53.2214 58.6314 53.0705 58.7404 52.9196 58.8494C52.8777 58.8826 52.8272 58.9165 52.7774 58.9584C52.6849 59.0256 52.6019 59.0927 52.5008 59.1592H52.4922C52.4337 59.201 52.3831 59.2343 52.3246 59.2761C52.2994 59.2928 52.2661 59.318 52.2409 59.3346L52.2156 59.3513C52.1066 59.4264 52.0148 59.4935 51.9224 59.5606C51.8805 59.5939 51.83 59.6278 51.7881 59.653C51.7629 59.6696 51.7463 59.6863 51.721 59.6949C51.6957 59.7115 51.6791 59.7281 51.6538 59.7368C51.4192 59.8956 51.1852 60.0465 50.9505 60.1974C50.9252 60.214 50.9 60.2306 50.8754 60.2479C50.8501 60.2645 50.8249 60.2812 50.7916 60.2984C50.3309 60.5916 49.8709 60.8595 49.3936 61.1187C49.3184 61.1606 49.2427 61.2024 49.1762 61.2357C49.0924 61.2862 49.0007 61.3281 48.9083 61.3779C48.1883 61.7628 47.4511 62.1064 46.7059 62.4241C46.6893 62.4328 46.6727 62.4408 46.6554 62.4494C46.5045 62.5079 46.3622 62.575 46.2113 62.6335C46.2027 62.6335 46.2027 62.6335 46.1947 62.6422C46.186 62.6422 46.1781 62.6508 46.1694 62.6508C46.077 62.684 45.9853 62.7259 45.9015 62.7598C45.7925 62.8017 45.6755 62.8522 45.5498 62.8941L45.2653 63.0031C45.24 63.0117 45.2068 63.0197 45.1815 63.0363C45.0891 63.0695 44.9887 63.1034 44.897 63.1367C44.8046 63.1699 44.7215 63.1952 44.6291 63.2291C44.4868 63.2796 44.3525 63.3215 44.2103 63.3713C44.1099 63.4046 44.0009 63.4385 43.9005 63.4717C43.8254 63.497 43.7496 63.5222 43.6745 63.5388C43.5402 63.5807 43.4066 63.6226 43.2723 63.6558C43.239 63.6645 43.2051 63.6724 43.1719 63.689C43.356 63.5136 43.5402 63.3288 43.7243 63.1367C45.8596 60.9013 47.7349 57.8038 49.1922 54.1201C51.0609 55.1231 52.7939 56.3123 54.3848 57.6769Z" fill="#FB403F"/>
<path d="M13.7834 14.0737C15.6673 15.7149 17.7356 17.1293 19.938 18.2932C18.4223 22.9647 17.5686 28.2644 17.4597 33.7561H5.21753C5.44355 28.2723 7.16004 23.0066 10.2161 18.4435C11.2545 16.8781 12.4605 15.4131 13.7834 14.0737Z" fill="#FB403F"/>
<path d="M20.8002 15.9072C18.9581 14.9108 17.2329 13.7136 15.6342 12.3491C15.7179 12.274 15.8017 12.2069 15.8855 12.1397C15.936 12.0892 15.9945 12.0473 16.053 12.0055C16.1035 11.9636 16.1534 11.9217 16.2039 11.8798C16.3129 11.7961 16.4133 11.7123 16.5223 11.6286C16.5808 11.578 16.6393 11.5362 16.7065 11.4863C16.765 11.4358 16.8321 11.3939 16.8906 11.3441C16.9491 11.3022 17.0076 11.2517 17.0661 11.2098C17.1499 11.1427 17.2336 11.0842 17.3174 11.0257C17.3925 10.9672 17.4683 10.9167 17.5434 10.8582C17.5767 10.8329 17.6106 10.8077 17.6438 10.7831C17.711 10.7326 17.7781 10.6827 17.8446 10.6408C17.8612 10.6322 17.8778 10.6156 17.8951 10.6076C17.9702 10.5491 18.054 10.4986 18.1298 10.4401C18.3305 10.2978 18.54 10.1636 18.7494 10.03C18.8331 9.97147 18.9249 9.92095 19.0086 9.86246C19.4859 9.56136 19.9712 9.26822 20.4658 8.9917C20.5164 8.95847 20.5749 8.93321 20.6247 8.89931C20.6919 8.86608 20.759 8.8242 20.8341 8.7903C20.9345 8.73181 21.0349 8.68129 21.1439 8.6228C21.2443 8.57228 21.3447 8.51379 21.4451 8.46393H21.4537C21.5541 8.41342 21.6545 8.36357 21.7549 8.31305C21.8386 8.27117 21.9224 8.2293 22.0062 8.18742C22.1484 8.12029 22.2827 8.05315 22.425 7.98668C22.5001 7.95345 22.5759 7.91955 22.651 7.88631C23.4886 7.50146 24.3422 7.15781 25.2131 6.85669C25.2969 6.83144 25.3807 6.7982 25.4558 6.77294C25.4811 6.7643 25.5063 6.75632 25.5396 6.74768C25.6399 6.71445 25.7324 6.68055 25.8327 6.65529C25.8999 6.63003 25.967 6.61341 26.0422 6.58815C26.1093 6.57154 26.1678 6.54628 26.2349 6.52966C26.3273 6.5044 26.4104 6.47117 26.5029 6.44591C26.578 6.42065 26.6538 6.40403 26.7375 6.37877C26.7708 6.37013 26.796 6.36216 26.8299 6.35352C26.6458 6.52899 26.4616 6.71378 26.2775 6.90588C24.1243 9.12599 22.2481 12.2235 20.8002 15.9072Z" fill="#FB403F"/>
<path d="M33.7615 5.30078V19.4748C30.0352 19.3239 26.4514 18.495 23.0603 17.0134C25.673 10.2654 29.5665 6.01274 33.7615 5.30078Z" fill="#FB403F"/>
<path d="M22.2229 19.3901C25.8819 20.9721 29.7503 21.8429 33.7531 21.9938L33.7524 33.7563H19.9707C20.0791 28.6494 20.8495 23.7352 22.2229 19.3901Z" fill="#FB403F"/>
<path d="M36.2734 19.4748V5.30078C38.4254 5.66903 40.5354 6.99177 42.4447 9.16858C42.4281 9.26097 42.4115 9.35269 42.3942 9.45307C42.3856 9.52818 42.3689 9.61193 42.361 9.68771C42.3523 9.72094 42.3523 9.75484 42.3444 9.7801C42.3277 9.92235 42.3111 10.0732 42.2938 10.2155C42.2938 10.2574 42.2852 10.3079 42.2852 10.3497C42.2765 10.4169 42.2765 10.484 42.2686 10.5505C42.2686 10.5837 42.2599 10.6176 42.2599 10.6429C42.2599 10.7014 42.2513 10.7599 42.2513 10.8183C42.2513 10.8436 42.2513 10.8689 42.2426 10.8935C42.2426 10.9772 42.234 11.061 42.234 11.1447V11.1952V11.4465V11.6891C42.234 11.7563 42.234 11.8314 42.2426 11.8985C42.2426 11.949 42.2426 11.9989 42.2513 12.0494C42.2513 12.0913 42.2513 12.1418 42.2599 12.1916V12.2422C42.2599 12.3007 42.2686 12.3678 42.2765 12.4263C42.2765 12.4595 42.2852 12.4934 42.2852 12.5353V12.5772C42.2938 12.6443 42.2938 12.7028 42.3018 12.7613C42.3104 12.845 42.3184 12.9201 42.3271 12.9959C42.3357 13.0797 42.3437 13.1548 42.3603 13.2385C42.3603 13.2551 42.3603 13.2638 42.369 13.2718C42.3776 13.3469 42.3942 13.4226 42.4022 13.4978C42.4108 13.5729 42.4275 13.6486 42.4441 13.7237C42.4441 13.7404 42.4527 13.7656 42.4527 13.7822C42.4614 13.8494 42.478 13.9165 42.4946 13.975C42.5278 14.1425 42.5617 14.3014 42.6036 14.4689C42.6123 14.5194 42.6289 14.5692 42.6369 14.6111C42.6455 14.6443 42.6535 14.6782 42.6621 14.7035C42.6787 14.762 42.6954 14.8125 42.704 14.871C42.704 14.8796 42.704 14.8876 42.7126 14.8963C42.7293 14.9634 42.7459 15.0305 42.7711 15.097C42.7878 15.1641 42.813 15.2393 42.8383 15.3064C42.8802 15.4486 42.9307 15.5995 42.9806 15.7418C43.0058 15.8169 43.0391 15.9006 43.0643 15.9764C43.0976 16.0688 43.1315 16.1519 43.1647 16.2443C43.19 16.3194 43.2232 16.3865 43.2571 16.4616C43.2903 16.5367 43.3156 16.6125 43.3495 16.679C43.3828 16.7627 43.4246 16.8465 43.4665 16.9302C43.4998 17.0053 43.5416 17.0891 43.5755 17.1649C43.6088 17.24 43.6507 17.3071 43.6846 17.3822C43.6932 17.3988 43.7012 17.4075 43.7012 17.4241C43.7344 17.4912 43.7683 17.5584 43.8102 17.6335V17.6421C43.8435 17.7093 43.8853 17.7764 43.9192 17.8515C43.9279 17.8601 43.9279 17.8681 43.9359 17.8768C43.9691 17.9439 44.011 18.0024 44.0449 18.0695C44.0535 18.0861 44.0615 18.0948 44.0701 18.1114C41.548 18.9051 38.936 19.3657 36.2736 19.4747L36.2734 19.4748Z" fill="#FB403F"/>
<path d="M36.2734 36.2686H50.0473C49.9383 41.3755 49.1684 46.2896 47.7951 50.6347C44.1441 49.0527 40.2755 48.182 36.2736 48.031L36.2734 36.2686Z" fill="#FB403F"/>
<path d="M49.109 24.6565C49.6615 27.5785 49.9799 30.6254 50.0471 33.7568H36.2732V21.9856C39.1119 21.8766 41.8999 21.3994 44.5877 20.5625L43.8677 25.7618L49.109 24.6565Z" fill="#FB403F"/>
<path d="M52.5585 36.2682H64.8085C64.5825 41.7434 62.866 47.0177 59.81 51.5808C58.7636 53.1462 57.5656 54.6112 56.2347 55.9591C54.3507 54.318 52.2825 52.9035 50.0801 51.7396C51.5958 47.0594 52.4494 41.7599 52.5583 36.2681L52.5585 36.2682Z" fill="#FB403F"/>
<path d="M52.5588 33.7565C52.4916 30.5334 52.1739 27.3767 51.6128 24.355C53.4462 25.0496 55.3809 25.4012 57.3904 25.4012H57.6165H57.8339H57.9848C58.0266 25.4012 58.0685 25.4012 58.1104 25.3926C58.1855 25.3926 58.2527 25.3839 58.3278 25.3839C58.3863 25.3839 58.4368 25.3753 58.4953 25.3753C58.5458 25.3753 58.5957 25.3666 58.6542 25.3666C58.7047 25.3666 58.7632 25.358 58.8131 25.35C58.9972 25.3334 59.1814 25.3168 59.3655 25.2915C59.4407 25.2829 59.5078 25.2749 59.5829 25.2663C59.6833 25.2576 59.7757 25.241 59.8674 25.2244C59.9844 25.2078 60.1021 25.1912 60.2105 25.1659C60.3694 25.1406 60.5203 25.1074 60.6791 25.0735C60.7376 25.0649 60.7961 25.0483 60.8546 25.0403C60.9218 25.0237 60.9969 25.007 61.064 24.9898C61.2063 24.9565 61.3406 24.9226 61.4829 24.8894C61.55 24.8728 61.6172 24.8562 61.6836 24.8389C61.8259 24.797 61.9602 24.7638 62.1024 24.7219C62.1696 24.7053 62.2367 24.68 62.3032 24.6548C62.3617 24.6381 62.4202 24.6215 62.4707 24.5963C62.5545 24.571 62.6296 24.5457 62.7134 24.5125C62.7805 24.4872 62.839 24.4706 62.8975 24.4454C64.0277 27.4259 64.6646 30.5486 64.7982 33.7551L52.5588 33.7565Z" fill="#FB403F"/>
<path d="M57.3905 2.07718e-05C52.6511 2.07718e-05 48.356 2.36902 46.1701 6.17845L46.1448 6.21169C45.6343 7.11567 45.2573 8.0702 45.0226 9.0665C45.0226 9.07514 45.014 9.09176 45.014 9.09974C44.8385 9.86148 44.7461 10.6485 44.7461 11.4441C44.7461 13.7964 45.5246 16.057 47.007 17.974L47.0489 18.0325L47.4006 18.4845L46.8315 22.5531L51.0349 21.6571L51.4704 21.5647L51.8387 21.7322C53.5719 22.494 55.4305 22.8875 57.3651 22.8875C59.3662 22.8875 61.284 22.4773 63.0504 21.6651C67.3376 19.7062 70.0001 15.7878 70.0001 11.4427C70.0254 5.14078 64.3569 2.07718e-05 57.3905 2.07718e-05ZM52.9775 12.7169H50.1308V10.205H52.9775V12.7169ZM58.8137 12.7169H55.967V10.205H58.8137V12.7169ZM64.6413 12.7169H61.7946V10.205H64.6413V12.7169Z" fill="#FB403F"/>
<path d="M23.0177 52.0341C22.0797 50.8117 20.9077 49.7735 19.5262 48.9618C17.4746 47.7481 15.0967 47.1113 12.635 47.1113C10.6339 47.1113 8.7161 47.5215 6.94105 48.3417C2.6624 50.3006 0 54.2189 0 58.5554C0 64.868 5.66874 70.0001 12.635 70.0001C14.5775 70.0001 16.4363 69.6153 18.1614 68.8529L18.5297 68.6854L23.1687 69.6731L22.5996 65.5958L22.926 65.1771C23.2691 64.7417 23.5788 64.2731 23.8554 63.7958C24.0482 63.4608 24.2237 63.1179 24.3746 62.7662C24.3833 62.741 24.3912 62.7244 24.3999 62.6991C24.4165 62.6659 24.4251 62.632 24.4418 62.5987C24.5255 62.406 24.6006 62.2139 24.6678 62.0125C24.7097 61.8868 24.7515 61.7699 24.7848 61.6442C24.8599 61.4016 24.927 61.1504 24.9856 60.8991C25.0108 60.7987 25.0274 60.7063 25.0527 60.606C25.0693 60.5222 25.0859 60.4385 25.1032 60.3467C25.2122 59.7525 25.2621 59.1496 25.2621 58.5381C25.2701 56.2116 24.4916 53.9597 23.0177 52.034L23.0177 52.0341ZM8.22205 59.8197H5.37534V57.3078H8.22205V59.8197ZM14.0582 59.8197H11.2115V57.3078H14.0582V59.8197ZM19.8945 59.8197H17.0477V57.3078H19.8945V59.8197Z" fill="#FB403F"/>
</svg>
