<svg width="70" height="70" viewBox="0 0 70 70" fill="none" xmlns="http://www.w3.org/2000/svg">
<path d="M50.7373 34.3872C49.9442 34.3872 49.2929 33.7519 49.2792 32.9558C49.2278 30.1205 48.0975 27.4575 46.0951 25.4553C43.9856 23.3472 41.146 22.2083 38.2037 22.2683H38.1769C37.3838 22.2683 36.7325 21.633 36.7187 20.8369C36.7043 20.0308 37.3454 19.3658 38.1501 19.3513C41.968 19.3144 45.4843 20.7197 48.1575 23.3928C50.6967 25.9321 52.131 29.3087 52.1962 32.9015C52.2107 33.7077 51.5695 34.3727 50.7648 34.3872L50.7373 34.3872Z" fill="#FB403F"/>
<path d="M60.6075 34.2088C59.8144 34.2088 59.1631 33.5734 59.1494 32.776C59.0524 27.3725 56.8952 22.2932 53.0766 18.4701C49.0531 14.448 43.6917 12.2678 38.0263 12.3936C37.2187 12.3711 36.5566 11.7669 36.5421 10.9607C36.5276 10.156 37.1688 9.49099 37.9749 9.47652C44.4479 9.34699 50.5527 11.8204 55.1382 16.4076C59.4947 20.7668 61.9543 26.5605 62.065 32.7237C62.0795 33.5284 61.4384 34.1935 60.6322 34.2079C60.625 34.2086 60.6163 34.2086 60.6076 34.2086L60.6075 34.2088Z" fill="#FB403F"/>
<path d="M69.9277 52.4993C69.919 50.7886 68.5578 49.4441 66.8516 49.3333C60.4083 48.9165 54.2877 47.2557 48.7366 44.5724C47.4963 43.9725 46.0236 44.1788 45.0517 45.1557L42.8185 47.3982C41.7685 48.4533 40.1055 48.6726 38.8587 47.8599C35.9634 45.9725 33.3178 43.7604 30.8219 41.3949H30.6931C27.4614 38.331 24.584 34.8908 22.1388 31.1401C21.3262 29.8933 21.5455 28.2304 22.6005 27.1803L24.8438 24.9478C25.8207 23.9752 26.0269 22.5034 25.427 21.2629C22.7438 15.7118 21.083 9.59117 20.6662 3.14783C20.5555 1.44075 19.2109 0.0802076 17.5002 0.0716859L3.21111 4.45407e-05C1.4143 -0.00936286 -0.0793514 1.47267 0.00327138 3.26812C0.660345 17.5132 5.61662 30.6098 13.5377 41.3953H13.5384C25.6884 57.9408 44.8813 68.989 66.7319 69.9967C68.5273 70.0792 70.0087 68.5856 70 66.7889L69.9277 52.4993Z" fill="#FB403F"/>
</svg>
