<svg width="76" height="100" viewBox="0 0 76 100" fill="none" xmlns="http://www.w3.org/2000/svg">
<path d="M24.1175 17.8829H50.972C54.1746 17.8829 56.769 15.1828 56.769 11.8497L56.7698 6.03316C56.7698 2.70011 54.1754 0 50.9729 0H24.1162C20.9136 0 18.3192 2.70011 18.3192 6.03316V11.8334C18.3192 15.1826 20.9136 17.8827 24.1162 17.8827L24.1175 17.8829Z" fill="#FB403F"/>
<path d="M63.192 9.35049V11.8502C63.192 18.8667 57.7156 24.5662 50.9737 24.5662L24.1171 24.5671C17.3909 24.5671 11.8988 18.8675 11.8988 11.851V9.35135C5.09313 10.9343 0.000819472 17.2181 0.000819472 24.7848L0 84.1666C0 92.8999 6.80563 100 15.2136 100H59.86C68.2514 100 75.0736 92.9171 75.0736 84.1666V24.7673C75.0892 17.2178 69.997 10.9177 63.1912 9.35113L63.192 9.35049ZM41.3009 81.4501H12.6359C10.9708 81.4501 9.6096 80.0497 9.6096 78.3005C9.6096 76.5675 10.9552 75.1508 12.6359 75.1508H41.3009C42.9661 75.1508 44.3273 76.5512 44.3273 78.3005C44.3281 80.0335 42.9825 81.4501 41.3009 81.4501ZM62.4724 67.3003H12.638C10.9729 67.3003 9.61169 65.8999 9.61169 64.1506C9.61169 62.4006 10.9573 61.001 12.638 61.001H62.4577C64.1229 61.001 65.4841 62.4014 65.4841 64.1506C65.4841 65.8998 64.1393 67.3003 62.4741 67.3003H62.4724ZM62.4724 53.1504H12.638C10.9729 53.1504 9.61169 51.75 9.61169 50.0008C9.61169 48.2507 10.9573 46.8511 12.638 46.8511H62.4577C64.1229 46.8511 65.4841 48.2515 65.4841 50.0008C65.4841 51.75 64.1393 53.1504 62.4741 53.1504H62.4724ZM62.4724 38.9844H12.638C10.9729 38.9844 9.61169 37.584 9.61169 35.8348C9.61169 34.1018 10.9573 32.6851 12.638 32.6851H62.4577C64.1229 32.6851 65.4841 34.0855 65.4841 35.8348C65.4841 37.584 64.1393 38.9844 62.4741 38.9844H62.4724Z" fill="#FB403F"/>
</svg>
