<svg width="100" height="100" viewBox="0 0 100 100" fill="none" xmlns="http://www.w3.org/2000/svg">
<path d="M25.7305 55.752H1.49972C0.653782 55.752 0 56.5006 0 57.4535V98.2985C0 99.2514 0.692422 100 1.49972 100H25.7682C26.6141 100 27.2679 99.2514 27.2679 98.2985V57.4535C27.269 56.5006 26.5765 55.752 25.7305 55.752Z" fill="#FB403F"/>
<path d="M62.1146 42.137H37.8462C37.0002 42.137 36.3464 42.8856 36.3464 43.8385V98.296C36.3464 99.2489 37.0389 99.9976 37.8462 99.9976H62.1146C62.9605 99.9976 63.6143 99.2489 63.6143 98.296V43.8385C63.653 42.8856 62.9605 42.137 62.1146 42.137Z" fill="#FB403F"/>
<path d="M98.4987 28.522H74.2303C73.3844 28.522 72.7306 29.2706 72.7306 30.2235V98.296C72.7306 99.2489 73.423 99.9976 74.2303 99.9976H98.4987C99.3447 99.9976 99.9985 99.2489 99.9985 98.296V30.2235C100.037 29.2706 99.3447 28.522 98.4987 28.522Z" fill="#FB403F"/>
<path d="M70.4226 6.16115L70.1531 5.88849C69.6915 5.47996 69.1912 5.2073 68.6534 5.07144L47.654 0.101655C47.3845 0.0332516 47.0775 0 46.7694 0C45.2697 0 43.9236 0.918683 43.5391 2.21267C43.3083 2.99552 43.4242 3.77834 43.8848 4.45953C44.3464 5.14071 45.0775 5.65088 45.9234 5.85515L59.0774 8.9865L12.8078 32.6074C12.0381 33.016 11.4616 33.6629 11.2308 34.4116C11 35.1944 11.1159 35.9773 11.5765 36.6584C12.0381 37.3396 12.7305 37.8498 13.6151 38.0541C14.461 38.2583 15.3843 38.1557 16.1916 37.7482L62.4612 14.1262L58.9228 25.7671C58.692 26.5499 58.8079 27.3327 59.2685 28.0139C59.7301 28.6951 60.4612 29.2053 61.3071 29.4096C63.0763 29.8181 64.9227 28.8652 65.4221 27.2995L71.0379 8.71571C71.1152 8.40979 71.1527 8.10293 71.1527 7.79702V7.76282L71.1141 7.55856C71.04 7.07973 70.8092 6.60376 70.4238 6.16105L70.4226 6.16115Z" fill="#FB403F"/>
</svg>
