<svg width="100" height="101" viewBox="0 0 100 101" fill="none" xmlns="http://www.w3.org/2000/svg">
<path d="M96.0683 30.9133C93.5494 24.9245 89.9451 19.5454 85.3535 14.928C80.7619 10.3093 75.4156 6.68367 69.4618 4.14991C63.2969 1.5276 56.7473 0.197418 49.9998 0.197418C43.2514 0.197418 36.7027 1.52763 30.5358 4.15089C24.5821 6.68465 19.2355 10.3103 14.6442 14.929C10.0526 19.5457 6.44822 24.9254 3.92932 30.9143C1.32238 37.1157 0 43.7039 0 50.4921C0 57.2804 1.32241 63.8676 3.93029 70.0709C6.44919 76.0598 10.0536 81.4388 14.6452 86.0563C16.7908 88.2145 19.1002 90.1566 21.5604 91.8698C22.1487 92.2805 22.7455 92.6759 23.3499 93.059C23.9381 93.4334 24.5349 93.7946 25.1393 94.1424C25.9398 94.6045 26.7563 95.0447 27.5842 95.4611C28.5505 95.95 29.5347 96.4073 30.536 96.8333C36.702 99.4566 43.2515 100.787 50 100.787C56.7484 100.787 63.2971 99.4565 69.464 96.8333C70.4653 96.4073 71.4495 95.95 72.4158 95.4611C73.2437 95.0447 74.0602 94.6045 74.8607 94.1424C75.466 93.7946 76.0618 93.4334 76.6501 93.059C77.2554 92.6759 77.8513 92.2805 78.4395 91.8698C80.8998 90.1556 83.2101 88.2136 85.3548 86.0563C89.9464 81.4395 93.5508 76.0598 96.0697 70.0709C98.6776 63.8686 100 57.2804 100 50.4921C99.999 43.7039 98.6776 37.1157 96.0687 30.9133H96.0683ZM78.4394 84.2816V71.2969C78.4394 68.669 77.6172 66.1628 76.0608 64.0503C74.5053 61.9378 72.3606 60.4189 69.8589 59.6529L58.3787 56.1529C57.69 55.9442 56.9445 56.1682 56.4841 56.7246L50 64.5611L43.5149 56.7256C43.0546 56.1701 42.3071 55.9443 41.6204 56.1539L30.1401 59.6549C27.6394 60.4191 25.4957 61.9389 23.9383 64.0513C22.3828 66.1638 21.5606 68.668 21.5606 71.2979V84.2826C12.0263 76.1517 5.96629 64.0208 5.96629 50.4926C5.96629 26.0697 25.7201 6.19873 50.0005 6.19873C74.2808 6.19873 94.0346 26.068 94.0346 50.4926C94.0346 64.0206 87.9739 76.1522 78.4403 84.2826L78.4394 84.2816Z" fill="#FB403F"/>
<path d="M64.0091 33.6503L63.0713 41.0923C62.5986 44.8379 60.5524 48.214 57.4578 50.3523C55.2544 51.8741 52.6758 52.6783 50.0008 52.6783C47.3257 52.6783 44.7471 51.8741 42.5437 50.3523C39.4479 48.2141 37.4009 44.8372 36.9302 41.0923L35.9914 33.6483C35.4827 29.6034 36.7275 25.5308 39.4074 22.4712C42.0873 19.4134 45.9485 17.6583 50.001 17.6583C53.795 17.6583 57.3538 19.1486 60.0233 21.8557C63.1067 24.9849 64.5608 29.2833 64.0096 33.6505L64.0091 33.6503Z" fill="#FB403F"/>
</svg>
