<svg width="100" height="102" viewBox="0 0 100 102" fill="none" xmlns="http://www.w3.org/2000/svg">
<path d="M82.145 69.0122C80.1698 69.0122 78.5739 70.6219 78.5739 72.6042V94.1594H21.4284V90.5674C21.4284 90.4417 21.3717 90.3339 21.3567 90.2117C29.5321 88.5699 35.7146 81.3019 35.7146 72.6043C35.7146 62.6998 27.7041 54.6421 17.8573 54.6421C8.01048 54.6421 0 62.6996 0 72.6043C0 81.3019 6.18253 88.5691 14.3579 90.2108C14.342 90.3338 14.2853 90.4417 14.2853 90.5674V97.7524C14.2853 99.7356 15.8821 101.344 17.8563 101.344H82.143C84.1182 101.344 85.714 99.7346 85.714 97.7524V72.6044C85.714 70.6212 84.1181 69.0115 82.143 69.0115L82.145 69.0122ZM7.14424 72.6042C7.14424 66.6626 11.9514 61.8272 17.8583 61.8272C23.7652 61.8272 28.5724 66.6626 28.5724 72.6042C28.5724 78.5459 23.7652 83.3813 17.8583 83.3813C11.9514 83.3821 7.14424 78.5465 7.14424 72.6042Z" fill="#FB403F"/>
<path d="M36.7617 23.3621L32.1432 28.0067L31.0967 26.9541C29.7002 25.5493 27.4433 25.5493 26.0466 26.9541C24.6499 28.3588 24.6501 30.6289 26.0466 32.0338L29.6177 35.6259C30.315 36.3274 31.2286 36.6794 32.1432 36.6794C33.0577 36.6794 33.9721 36.3274 34.6687 35.6268L41.8117 28.4418C43.2082 27.0371 43.2082 24.7669 41.8117 23.362C40.4152 21.9571 38.1584 21.9574 36.7617 23.3621Z" fill="#FB403F"/>
<path d="M57.144 29.4956H46.4299C44.4548 29.4956 42.8589 31.1054 42.8589 33.0877C42.8589 35.0709 44.4557 36.6797 46.4299 36.6797H57.144C59.1192 36.6797 60.7151 35.0699 60.7151 33.0877C60.7151 31.1044 59.1182 29.4956 57.144 29.4956Z" fill="#FB403F"/>
<path d="M26.0452 53.5894L29.6163 57.1814C30.3136 57.8829 31.2273 58.235 32.1418 58.235C33.0563 58.235 33.9707 57.8829 34.6673 57.1823L41.8103 49.9973C43.2068 48.5926 43.2068 46.3224 41.8103 44.9175C40.4138 43.5126 38.1569 43.5128 36.7602 44.9175L32.1418 49.5622L31.0953 48.5095C29.6987 47.1048 27.4419 47.1048 26.0451 48.5095C24.6484 49.9142 24.6487 52.1844 26.0452 53.5894Z" fill="#FB403F"/>
<path d="M46.4275 58.2351H57.1416C59.1167 58.2351 60.7126 56.6254 60.7126 54.6431C60.7126 52.6599 59.1158 51.0511 57.1416 51.0511H46.4275C44.4523 51.0511 42.8564 52.6608 42.8564 54.6431C42.8564 56.6254 44.4524 58.2351 46.4275 58.2351Z" fill="#FB403F"/>
<path d="M46.4275 79.7892H71.4285C73.4037 79.7892 74.9995 78.1795 74.9995 76.1972C74.9995 74.214 73.4027 72.6051 71.4285 72.6051H46.4275C44.4523 72.6051 42.8564 74.2149 42.8564 76.1972C42.8564 78.1804 44.4524 79.7892 46.4275 79.7892Z" fill="#FB403F"/>
<path d="M92.859 22.3102C92.859 17.5861 89.8018 13.6089 85.591 12.1543C85.6309 11.9457 85.716 11.7549 85.716 11.5321V4.3471C85.716 2.36388 84.1192 0.755066 82.1449 0.755066H17.8583C15.8831 0.755066 14.2872 2.36482 14.2872 4.3471V47.4575C14.2872 49.4407 15.884 51.0496 17.8583 51.0496C19.8335 51.0496 21.4293 49.4398 21.4293 47.4575L21.4302 7.94097H32.1772C32.1772 8.8751 32.5095 9.79495 33.1918 10.4813L40.3348 17.6663C41.0021 18.341 41.9095 18.7181 42.8594 18.7181H57.1457C58.0956 18.7181 59.003 18.3411 59.6712 17.6654L66.8142 10.4804C67.4956 9.79499 67.8279 8.87512 67.8279 7.94099H78.574V11.533C78.574 11.7559 78.6599 11.9466 78.6989 12.1543C74.4888 13.6099 71.4309 17.5871 71.4309 22.3111C71.4309 28.2528 76.2381 33.0882 82.145 33.0882C88.0528 33.0882 92.8599 28.2528 92.8599 22.3111L92.859 22.3102ZM82.145 25.9022C80.1734 25.9022 78.5739 24.2889 78.5739 22.3102C78.5739 20.3305 80.1743 18.7181 82.145 18.7181C84.1166 18.7181 85.716 20.3315 85.716 22.3102C85.716 24.2898 84.1166 25.9022 82.145 25.9022Z" fill="#FB403F"/>
<path d="M85.6793 33.0872H78.608C70.711 33.0872 64.2864 39.5502 64.2864 47.493V61.8274C64.2864 63.8106 65.8832 65.4194 67.8574 65.4194H96.429C98.4042 65.4194 100 63.8097 100 61.8274V47.493C100 39.5502 93.5748 33.0872 85.6784 33.0872H85.6793ZM92.858 58.2351H71.4296V47.4937C71.4296 43.5922 74.5256 40.4237 78.3723 40.298L75.1867 49.9154C74.7578 51.2051 75.0936 52.6312 76.0471 53.5903L79.6182 57.1823C80.3147 57.8829 81.2292 58.235 82.1437 58.235C83.0582 58.235 83.9727 57.8829 84.6692 57.1823L88.2402 53.5903C89.1973 52.6276 89.5296 51.2051 89.1007 49.9154L85.915 40.298C89.7617 40.4228 92.8577 43.5916 92.8577 47.4928L92.858 58.2351Z" fill="#FB403F"/>
<path d="M20.3809 75.1434L23.9519 71.5514C25.3485 70.1466 25.3485 67.8765 23.9519 66.4716C22.5554 65.0667 20.2985 65.0669 18.9018 66.4716L16.3772 69.011H14.2842C12.309 69.011 10.7131 70.6208 10.7131 72.6031C10.7131 74.5863 12.3099 76.1951 14.2842 76.1951H17.8552C18.8052 76.196 19.7127 75.8191 20.3809 75.1434Z" fill="#FB403F"/>
</svg>
