<svg width="100" height="101" viewBox="0 0 100 101" fill="none" xmlns="http://www.w3.org/2000/svg">
<path d="M17.8569 48.7693C17.8569 47.8493 17.4812 46.9671 16.8113 46.3165C16.1414 45.6658 15.2331 45.301 14.2858 45.301H3.57106C2.29507 45.301 1.11661 45.9619 0.478499 47.0351C-0.1595 48.1083 -0.1595 49.4301 0.478499 50.5033C1.1165 51.5764 2.29502 52.2382 3.57106 52.2382H14.2858C15.2331 52.2382 16.1413 51.8725 16.8113 51.2219C17.4812 50.5713 17.8569 49.6893 17.8569 48.7693Z" fill="#FB403F"/>
<path d="M22.2146 70.8315L14.6428 78.2197C13.9773 78.8695 13.6042 79.749 13.6042 80.6648C13.6042 81.5813 13.9773 82.4608 14.6428 83.1107C15.3171 83.7596 16.2289 84.1219 17.1789 84.1168C18.1155 84.1124 19.0131 83.751 19.6787 83.1107L27.2859 75.7568C28.1915 74.8773 28.5451 73.595 28.2137 72.3927C27.8823 71.1913 26.9155 70.2523 25.6785 69.9304C24.4406 69.6077 23.1204 69.952 22.2146 70.8315Z" fill="#FB403F"/>
<path d="M77.7868 70.8315C76.8804 69.952 75.5601 69.6077 74.3229 69.9305C73.085 70.2523 72.1183 71.1913 71.7868 72.3927C71.4554 73.5949 71.809 74.8772 72.7146 75.7569L80.3218 83.1107C80.9873 83.751 81.8849 84.1125 82.8223 84.1168C83.7713 84.122 84.684 83.7596 85.3575 83.1107C86.023 82.461 86.396 81.5815 86.396 80.6648C86.396 79.7492 86.023 78.8696 85.3575 78.2198L77.7868 70.8315Z" fill="#FB403F"/>
<path d="M96.4289 45.3015H85.7141C84.4381 45.3015 83.2597 45.9625 82.6216 47.0356C81.9836 48.1088 81.9836 49.4307 82.6216 50.5038C83.2596 51.577 84.4381 52.2388 85.7141 52.2388H96.4289C97.7049 52.2388 98.8833 51.577 99.5215 50.5038C100.16 49.4306 100.159 48.1088 99.5215 47.0356C98.8835 45.9625 97.7049 45.3015 96.4289 45.3015Z" fill="#FB403F"/>
<path d="M75.2507 27.7161C76.1998 27.7212 77.1125 27.3598 77.7869 26.71L85.3578 19.3218C86.1136 18.6935 86.5655 17.7873 86.6037 16.8217C86.6426 15.8561 86.2643 14.918 85.5607 14.2347C84.8571 13.5514 83.8913 13.1839 82.8971 13.2218C81.9029 13.2588 80.9698 13.6968 80.322 14.4309L72.7147 21.7848C72.0386 22.4363 71.6585 23.3227 71.6585 24.2479C71.6585 25.1722 72.0387 26.0595 72.7147 26.7101C73.3891 27.3599 74.3016 27.7212 75.2507 27.7161Z" fill="#FB403F"/>
<path d="M50.0007 17.553C50.948 17.553 51.8563 17.1872 52.5262 16.5366C53.1952 15.886 53.5718 15.0039 53.5718 14.0838V3.6784C53.5718 2.43913 52.8913 1.29372 51.7863 0.673979C50.6813 0.0542361 49.3194 0.0543463 48.2144 0.673979C47.1094 1.29361 46.4289 2.43907 46.4289 3.6784V14.0838C46.4289 15.0038 46.8055 15.8859 47.4754 16.5366C48.1453 17.1872 49.0534 17.553 50.0007 17.553Z" fill="#FB403F"/>
<path d="M22.2146 26.7092C22.888 27.359 23.8007 27.7204 24.7498 27.7152C25.6988 27.7204 26.6115 27.359 27.2859 26.7092C27.962 26.0586 28.3421 25.1713 28.3421 24.247C28.3421 23.3218 27.962 22.4354 27.2859 21.7839L19.6787 14.43C18.7589 13.6658 17.5033 13.405 16.3425 13.7389C15.1817 14.072 14.2743 14.9541 13.9305 16.0815C13.5875 17.2089 13.8551 18.4283 14.6429 19.3208L22.2146 26.7092Z" fill="#FB403F"/>
<path d="M36.1065 54.9094C35.441 55.5591 35.068 56.4387 35.068 57.3553C35.068 58.271 35.441 59.1505 36.1065 59.8004L38.6426 62.2635C39.3116 62.9089 40.2164 63.2721 41.1602 63.2721C42.1039 63.2721 43.0095 62.9089 43.6786 62.2635L44.4282 61.5354H44.6427V62.6447C44.6427 63.5647 45.0193 64.4468 45.6883 65.0975C46.3582 65.7481 47.2664 66.1139 48.2137 66.1139H51.7856C52.7329 66.1139 53.6411 65.7481 54.3111 65.0975C54.981 64.4469 55.3567 63.5648 55.3567 62.6447V61.6043H55.5711L56.3208 62.3323H56.3217C56.9907 62.9786 57.8954 63.3409 58.8392 63.3409C59.783 63.3409 60.6876 62.9786 61.3576 62.3323L63.8937 59.8692L63.8928 59.8701C64.5583 59.2203 64.9314 58.3408 64.9314 57.4241C64.9314 56.5075 64.5583 55.6289 63.8928 54.9791L63.1432 54.251V54.0428L64.2863 54.0419C65.2327 54.0419 66.1418 53.677 66.8117 53.0264C67.4807 52.3758 67.8574 51.4937 67.8574 50.5736V47.1054C67.8574 46.1855 67.4807 45.3025 66.8117 44.6527C66.1418 44.0021 65.2327 43.6363 64.2863 43.6363H63.215V43.4281L63.9646 42.7C64.6292 42.0502 65.0031 41.1707 65.0031 40.2541C65.0031 39.3384 64.6292 38.4588 63.9646 37.809L61.4285 35.3459C60.7595 34.7004 59.8539 34.3373 58.911 34.3373C57.9673 34.3373 57.0617 34.7004 56.3926 35.3459L55.6429 36.074H55.4285V34.8949C55.4285 33.975 55.0519 33.0928 54.382 32.4422C53.713 31.7916 52.8038 31.4267 51.8565 31.4267H48.2855C47.3383 31.4267 46.43 31.7916 45.7601 32.4422C45.0901 33.0928 44.7145 33.9749 44.7145 34.8949V35.9354H44.5L43.7504 35.2073H43.7495C43.0805 34.561 42.1758 34.1987 41.232 34.1987C40.2882 34.1987 39.3827 34.561 38.7135 35.2073L36.1774 37.6705H36.1783C35.5128 38.3202 35.1398 39.1989 35.1398 40.1155C35.1398 41.0321 35.5128 41.9107 36.1783 42.5614L36.928 43.2895V43.4978H35.714C34.7667 43.4978 33.8585 43.8626 33.1885 44.5133C32.5186 45.1639 32.142 46.046 32.142 46.966V50.4351C32.142 51.3551 32.5186 52.2372 33.1885 52.8879C33.8584 53.5385 34.7667 53.9034 35.714 53.9034H36.7853V54.1116L36.1065 54.9094ZM57.1427 48.7699C57.1427 50.6099 56.3895 52.374 55.0506 53.6754C53.7108 54.9766 51.8943 55.7073 49.9997 55.7073C48.1051 55.7073 46.2878 54.9767 44.9487 53.6754C43.609 52.3742 42.8566 50.61 42.8566 48.7699C42.8566 46.9299 43.6089 45.1658 44.9487 43.8644C46.2876 42.5632 48.1051 41.8325 49.9997 41.8325C51.8943 41.8325 53.7106 42.5631 55.0506 43.8644C56.3895 45.1656 57.1427 46.9298 57.1427 48.7699Z" fill="#FB403F"/>
<path d="M78.5718 48.7693C78.5718 38.856 73.1266 29.6949 64.2867 24.7374C55.4459 19.7803 44.5549 19.7803 35.7157 24.7374C26.8749 29.6945 21.4297 38.8556 21.4297 48.7693C21.4031 53.6325 22.7137 58.4139 25.2248 62.6215C27.736 66.8282 31.3566 70.3085 35.7155 72.7026V79.9867C34.4395 79.9867 33.2601 80.6485 32.622 81.7216C31.984 82.7948 31.984 84.1167 32.622 85.1898C33.26 86.263 34.4394 86.9239 35.7155 86.9239C35.7155 91.881 38.4385 96.4611 42.8583 98.9396C47.2782 101.418 52.7233 101.418 57.1443 98.9396C61.5641 96.4611 64.2872 91.881 64.2872 86.9239C65.5623 86.9239 66.7416 86.263 67.3797 85.1898C68.0178 84.1166 68.0177 82.7948 67.3797 81.7216C66.7417 80.6485 65.5623 79.9867 64.2872 79.9867V72.7026C68.6451 70.3085 72.2666 66.8282 74.7778 62.6215C77.289 58.4139 78.5988 53.6325 78.5722 48.7693H78.5718ZM28.573 48.7693C28.573 41.3337 32.6571 34.4634 39.2869 30.7456C45.9166 27.0278 54.0858 27.0278 60.7157 30.7456C67.3457 34.4634 71.4296 41.3337 71.4296 48.7693C71.4544 52.7133 70.314 56.5809 68.1422 59.9132C65.9712 63.2454 62.8601 65.9031 59.18 67.5691L58.7874 67.8462V67.8471C58.5517 67.9805 58.3355 68.144 58.1441 68.3324C57.9829 68.4822 57.8499 68.6586 57.7516 68.8531L57.3945 69.4426C57.3741 69.6965 57.3741 69.9512 57.3945 70.2051C57.3776 70.3669 57.3776 70.5296 57.3945 70.6913V79.9866H42.8588V70.6913C42.8756 70.5296 42.8756 70.3669 42.8588 70.2051C42.8783 69.9512 42.8783 69.6965 42.8588 69.4426L42.5017 68.8531C42.4033 68.6586 42.2704 68.4822 42.1082 68.3324C41.9177 68.144 41.7015 67.9804 41.4658 67.8471L41.0732 67.57L41.0724 67.5691C37.3453 65.9383 34.1829 63.2961 31.9657 59.9614C29.7478 56.6257 28.5692 52.7393 28.5728 48.7693H28.573ZM50.0019 93.8609C48.1074 93.8609 46.29 93.1303 44.951 91.829C43.6112 90.5287 42.8588 88.7636 42.8588 86.9235H57.1448C57.1448 88.7635 56.3916 90.5285 55.0527 91.829C53.7129 93.1303 51.8965 93.8609 50.0019 93.8609Z" fill="#FB403F"/>
</svg>
